:SAMPLES-PER-SECOND 30
:FRAME-RANGE 1-2045
:FULLY-SPECIFIED
:DEGREES
1598
root  4.04618 32.1056 -77.4 163.091 78.0815 164.486
RightUpLeg  -32.2514 8.7514 -31.3421
RightLeg  59.874 -2.11124 -4.43049
RightFoot  -17.2025 1.29976 27.2078
RightToes  5.82063e-011 0 -3.6325e-017
Spine  27.022 2.52751 1.14711
Spine1  -3.3054 2.90442 -0.661875
HEad  -11.1082 -2.94432 -2.79666
LeftShoulder1  1.84261 -4.09005 -17.641
LeftArm  -15.0394 -56.1249 -20.2331
LeftForeArm  11.3624 -12.2778 -12.3423
LeftHand  0.110892 -1.60746 -1.70263
RightShoulder  21.0235 30.7487 53.3486
RightArm  15.9644 14.3952 25.0508
RightForeArm  2.0806 40.6491 9.48727
RightHand  0.290732 6.02087 2.61886
LeftUpLeg  -26.5197 5.33905 29.0232
LeftLeg  39.8635 -1.6359 -1.08613
LeftFoot  -6.04535 1.60436 -33.0395
LeftToes  -3.90176e-010 -2.48536e-010 1.05482e-011
1599
root  4.58146 31.8785 -78.4813 156.162 80.6497 157.17
RightUpLeg  -34.7618 3.671 -30.9767
RightLeg  62.7063 -3.79176 -8.50083
RightFoot  -13.6365 0.430715 25.7613
RightToes  5.82063e-011 0 -3.6325e-017
Spine  25.8137 2.72326 -0.940743
Spine1  -3.17925 2.77796 -1.01137
HEad  -10.1131 -5.1918 0.244776
LeftShoulder1  1.6409 -3.76337 -15.8077
LeftArm  -12.5362 -56.1488 -17.8736
LeftForeArm  5.68263 -15.3152 -10.5874
LeftHand  0.167043 -1.74159 -2.57585
RightShoulder  18.4125 26.7247 53.063
RightArm  14.2463 10.2204 24.8696
RightForeArm  2.26537 43.6902 10.5537
RightHand  -0.120471 4.85071 -1.66315
LeftUpLeg  -23.0976 4.18302 31.0949
LeftLeg  36.5557 0.844301 1.03704
LeftFoot  -3.78522 2.23987 -32.7315
LeftToes  -3.90176e-010 -2.48536e-010 1.05482e-011
1600
root  5.04918 31.4582 -79.7407 151.676 83.214 152.632
RightUpLeg  -37.7709 -1.50322 -30.5208
RightLeg  65.6949 -3.90721 -10.0399
RightFoot  -8.95188 -0.588304 24.8862
RightToes  5.82063e-011 0 -3.6325e-017
Spine  25.9018 1.74975 0.23964
Spine1  -4.95806 2.2733 -1.85628
HEad  -8.6899 -7.21895 1.15429
LeftShoulder1  1.52174 -3.05973 -16.4637
LeftArm  -7.46166 -55.0844 -16.0937
LeftForeArm  -3.5435 -18.8322 -8.23064
LeftHand  0.259434 -1.67539 -4.12944
RightShoulder  14.7981 22.1995 50.2899
RightArm  12.9183 4.56165 23.1015
RightForeArm  0.734529 47.2615 12.0992
RightHand  -0.350895 3.804 -4.68966
LeftUpLeg  -20.0349 -0.702815 34.2214
LeftLeg  34.8339 2.80684 2.45502
LeftFoot  -4.24442 2.09041 -32.4763
LeftToes  -3.90176e-010 -2.48536e-010 1.05482e-011
1601
root  5.43903 30.9191 -80.9389 124.088 85.5482 125.187
RightUpLeg  -42.1864 -4.65335 -31.0395
RightLeg  67.9704 -0.287765 -1.51001
RightFoot  -9.03228 -0.594342 25.9834
RightToes  5.82063e-011 0 -3.6325e-017
Spine  27.1251 1.37586 1.16948
Spine1  -6.8455 2.36338 -2.56657
HEad  -11.2602 -7.60127 0.480466
LeftShoulder1  1.43219 -2.44592 -17.4228
LeftArm  -4.57531 -52.4603 -16.1633
LeftForeArm  -8.9103 -23.7102 -5.51412
LeftHand  0.357598 -1.92188 -5.52867
RightShoulder  11.6628 18.9404 45.3555
RightArm  9.41822 2.52479 18.9198
RightForeArm  -1.64425 48.4849 12.8167
RightHand  -0.287666 3.31723 -4.07642
LeftUpLeg  -16.7138 -6.31192 35.0771
LeftLeg  35.2852 4.70944 3.92999
LeftFoot  -7.47477 1.20542 -33.4854
LeftToes  -3.90176e-010 -2.48536e-010 1.05482e-011
1602
root  5.71285 30.4521 -82.0478 60.0828 85.3991 61.0037
RightUpLeg  -47.8492 -8.24187 -27.1759
RightLeg  68.9043 1.16944 2.61299
RightFoot  -10.8284 -0.175006 22.2429
RightToes  5.82063e-011 0 -3.6325e-017
Spine  28.7414 0.97951 2.41801
Spine1  -8.26782 2.59104 -3.12699
HEad  -15.2099 -6.76286 -0.1823
LeftShoulder1  1.3976 -2.12459 -18.2425
LeftArm  -11.0693 -47.3169 -15.1512
LeftForeArm  -4.56967 -29.8691 -6.7456
LeftHand  0.384489 -1.25927 -6.62019
RightShoulder  10.9938 19.5939 41.302
RightArm  -0.199588 4.84233 12.1666
RightForeArm  -3.23754 44.2232 11.1185
RightHand  -0.290998 3.0715 -4.22325
LeftUpLeg  -13.5101 -6.51226 35.0047
LeftLeg  37.0064 5.74624 4.99419
LeftFoot  -10.5503 0.31296 -35.2291
LeftToes  -3.90176e-010 -2.48536e-010 1.05482e-011
1603
root  5.91696 30.1945 -83.1179 33.6858 81.2958 33.5494
RightUpLeg  -53.9987 -11.4771 -21.2649
RightLeg  69.9197 -1.40958 -5.11116
RightFoot  -9.22659 -0.318617 13.787
RightToes  5.82063e-011 0 -3.6325e-017
Spine  30.6456 0.318799 4.40711
Spine1  -10.4753 2.62762 -3.81979
HEad  -18.8566 -6.71519 -0.91226
LeftShoulder1  1.29879 -1.55512 -19.1456
LeftArm  -13.6068 -43.6957 -14.799
LeftForeArm  -6.58958 -34.3651 -8.05262
LeftHand  0.501885 -1.11204 -8.88323
RightShoulder  10.2744 21.0699 35.7097
RightArm  -12.1389 8.80107 7.8132
RightForeArm  -10.3932 38.6241 9.56003
RightHand  -0.305438 2.06606 -4.93845
LeftUpLeg  -10.7943 -3.53372 34.4302
LeftLeg  37.576 5.86118 5.18362
LeftFoot  -11.9769 -0.146714 -37.8412
LeftToes  -3.90176e-010 -2.48536e-010 1.05482e-011
1604
root  6.16067 29.9934 -83.9862 31.0682 77.5202 30.42
RightUpLeg  -56.9735 -10.1325 -22.3624
RightLeg  70.1002 -2.40944 -8.21185
RightFoot  -6.11498 -0.636989 12.9889
RightToes  5.82063e-011 0 -3.6325e-017
Spine  31.9784 -1.19012 7.67293
Spine1  -11.5377 2.41188 -7.09567
HEad  -22.415 -8.25814 -2.11138
LeftShoulder1  1.40332 -1.81516 -19.91
LeftArm  -13.4544 -43.4133 -15.4062
LeftForeArm  -3.72064 -36.6574 -8.56174
LeftHand  0.558044 -1.20838 -9.72918
RightShoulder  9.54968 23.8353 28.7425
RightArm  -24.212 12.899 4.3526
RightForeArm  -20.8084 31.7419 8.03959
RightHand  -0.0342208 1.66013 -0.714231
LeftUpLeg  -7.68676 -1.68065 33.8072
LeftLeg  35.8184 3.53454 3.09492
LeftFoot  -13.0291 -0.542144 -40.3643
LeftToes  -3.90176e-010 -2.48536e-010 1.05482e-011
1605
root  6.46476 30.0209 -84.7714 31.9418 75.3635 30.8554
RightUpLeg  -57.0717 -9.10212 -25.3091
RightLeg  68.4863 -2.19165 -6.88627
RightFoot  -5.50195 -0.802186 14.9115
RightToes  5.82063e-011 0 -3.6325e-017
Spine  32.781 -2.93826 11.5489
Spine1  -12.6246 2.02111 -9.57494
HEad  -23.5051 -10.8519 -4.30489
LeftShoulder1  1.74266 -2.78401 -21.3397
LeftArm  -9.91187 -45.9847 -17.8808
LeftForeArm  -5.81366 -35.9251 -8.46152
LeftHand  0.570044 -1.25143 -9.87058
RightShoulder  7.87715 27.0163 19.0914
RightArm  -33.7977 17.3559 2.59441
RightForeArm  -25.2795 20.2546 6.78074
RightHand  0.469225 2.44801 6.75171
LeftUpLeg  -4.93887 -1.05644 33.4543
LeftLeg  32.7174 -0.0562764 0.308376
LeftFoot  -13.9257 -0.948631 -43.5786
LeftToes  -3.90176e-010 -2.48536e-010 1.05482e-011
1606
root  6.67961 30.384 -85.5399 34.8961 73.1532 32.4068
RightUpLeg  -57.9099 -9.36192 -27.39
RightLeg  65.5119 -2.46638 -6.55505
RightFoot  -2.85941 -1.11671 14.7198
RightToes  5.82063e-011 0 -3.6325e-017
Spine  33.5503 -4.34504 15.3496
Spine1  -14.256 1.78204 -11.7239
HEad  -25.783 -12.5649 -6.37296
LeftShoulder1  1.92973 -3.66833 -20.4821
LeftArm  -3.06764 -48.9487 -22.6361
LeftForeArm  -7.35094 -33.3231 -7.80211
LeftHand  0.589666 -1.46141 -9.87727
RightShoulder  5.77678 29.7898 9.81563
RightArm  -47.3162 21.6302 0.639387
RightForeArm  -25.0667 7.74898 6.76601
RightHand  1.13516 2.84739 15.6829
LeftUpLeg  -3.99193 1.65535 31.7091
LeftLeg  30.7535 -3.88597 -2.15486
LeftFoot  -14.9354 -1.37779 -44.4655
LeftToes  -3.90176e-010 -2.48536e-010 1.05482e-011
1607
root  6.97446 30.9171 -86.1834 35.7952 69.7463 31.2228
RightUpLeg  -60.1513 -10.4818 -26.8711
RightLeg  62.3978 -4.45233 -9.72294
RightFoot  0.93719 -1.5363 14.2746
RightToes  5.82063e-011 0 -3.6325e-017
Spine  34.0327 -4.15554 18.4155
Spine1  -14.9533 2.95496 -11.9144
HEad  -29.6369 -14.0624 -9.61761
LeftShoulder1  2.18647 -4.40076 -21.2917
LeftArm  3.04337 -49.6229 -24.4233
LeftForeArm  -4.36652 -32.595 -7.44367
LeftHand  0.690334 -2.38505 -10.116
RightShoulder  2.7645 30.7831 -0.562221
RightArm  -47.9084 27.1641 -0.727925
RightForeArm  -29.9028 -2.21294 4.82593
RightHand  1.47808 2.30846 21.8437
LeftUpLeg  -2.54454 5.43421 29.0638
LeftLeg  28.1567 -4.75639 -2.42227
LeftFoot  -14.7384 -1.31683 -44.994
LeftToes  -3.90176e-010 -2.48536e-010 1.05482e-011
